<svg width="77" height="66" viewBox="0 0 77 66" fill="none" xmlns="http://www.w3.org/2000/svg">
<path d="M62.6715 33.6139C71.3238 33.6139 77.1545 40.1442 77.1545 49.8199C77.1545 58.5269 70.453 65.7807 61.3764 65.7807C51.4345 65.7807 44.0883 57.0737 44.0883 43.7741C44.0883 13.5448 64.4019 1.45316 77.1545 0V13.2997C68.5077 14.992 58.7862 24.4226 58.3508 34.8279C58.7862 34.5887 60.5111 33.6139 62.6715 33.6139ZM18.5887 33.6139C27.23 33.6139 33.0662 40.1442 33.0662 49.8199C33.0662 58.5269 26.3648 65.7807 17.2881 65.7807C7.34621 65.7807 0 57.0737 0 43.7741C0 13.5448 20.3137 1.45316 33.0662 0V13.2997C24.4194 14.992 14.6979 24.4226 14.2626 34.8279C14.6979 34.5887 16.4229 33.6139 18.5887 33.6139V33.6139Z" fill="#CCBFBF"/>
</svg>
